{
  "title": "Vacation 2015 HD720P X264 AAC English CHS Mp4Ba ",
  "uid": 12443371,
  "size": 1451158121,
  "categoryP": "video",
  "categoryS": "movies",
  "magnet": "?xt=urn:btih:a79df5c09af3fa007285bad4e85025ef1e1a1ee8&amp;dn=Vacation+2015+HD720P+X264+AAC+English+CHS+Mp4Ba+&amp;tr=udp%3A%2F%2Ftracker.openbittorrent.com%3A80&amp;tr=udp%3A%2F%2Fopen.demonii.com%3A1337&amp;tr=udp%3A%2F%2Ftracker.coppersurfer.tk%3A6969&amp;tr=udp%3A%2F%2Fexodus.desync.com%3A6969",
  "seeders": 41,
  "leechers": 3,
  "uploader": "SS132203",
  "files": 2,
  "time": 1442601115,
  "description": "Vacation 2015 HD720P X264 AAC English CHS Mp4Ba \n &lt;a href=&quot;\nhttp://imgsparrow.co/image/8qF&quot; rel=&quot;nofollow&quot; target=&quot;_NEW&quot;&gt;\nhttp://imgsparrow.co/image/8qF&lt;/a&gt;\n &lt;a href=&quot;\nhttp://imgsparrow.co/image/9b&quot; rel=&quot;nofollow&quot; target=&quot;_NEW&quot;&gt;\nhttp://imgsparrow.co/image/9b&lt;/a&gt;\n\nInfo : - \n\nThank Mp4Ba  Not Me!\n &lt;a href=&quot;\nhttp://www.imdb.com/title/tt1524930/&quot; rel=&quot;nofollow&quot; target=&quot;_NEW&quot;&gt;\nhttp://www.imdb.com/title/tt1524930/&lt;/a&gt;\n\nRusty Griswold takes his own family on a road trip to &quot;Walley World&quot; in order to spice things up with his wife and reconnect with his sons.\n\nFormat : MPEG-4\nFormat profile : Base Media\nCodec ID : isom\nFile size : 1.35 GiB\nDuration : 1h 34mn\nOverall bit rate mode : Variable\nOverall bit rate : 2 039 Kbps\nEncoded date : UTC 2015-09-18 13:50:45\nTagged date : UTC 2015-09-18 13:50:45\n\nVideo\nID : 1\nFormat : AVC\nFormat/Info : Advanced Video Codec\nFormat profile : &lt;a class=&quot;__cf_email__&quot; href=&quot;/cdn-cgi/l/email-protection&quot; data-cfemail=&quot;91d9f8f6f9d1dda5bfa0&quot;&gt;[email&amp;#160;protected]&lt;/a&gt;&lt;script data-cfhash='f9e31' type=&quot;text/javascript&quot;&gt;\n/* &lt;![CDATA[ */!function(){try{var t=&quot;currentScript&quot;in document?document.currentScript:function(){for(var t=document.getElementsByTagName(&quot;script&quot;),e=t.length;e--;)if(t[e].getAttribute(&quot;data-cfhash&quot;))return t[e]}();if(t&amp;&amp;t.previousSibling){var e,r,n,i,c=t.previousSibling,a=c.getAttribute(&quot;data-cfemail&quot;);if(a){for(e=&quot;&quot;,r=parseInt(a.substr(0,2),16),n=2;a.length-n;n+=2)i=parseInt(a.substr(n,2),16)^r,e+=String.fromCharCode(i);e=document.createTextNode(e),c.parentNode.replaceChild(e,c)}t.parentNode.removeChild(t);}}catch(u){}}()/* ]]&gt; */&lt;/script&gt;\nFormat settings, CABAC : Yes\nFormat settings, ReFrames : 11 frames\nCodec ID : avc1\nCodec ID/Info : Advanced Video Coding\nDuration : 1h 34mn\nBit rate : 2 000 Kbps\nMaximum bit rate : 19.8 Mbps\nWidth : 1 280 pixels\nHeight : 532 pixels\nDisplay aspect ratio : 2.40:1\nFrame rate mode : Constant\nFrame rate : 25.000 fps\nColor space : YUV\nChroma subsampling : 4:2:0\nBit depth : 8 bits\nScan type : Progressive\nBits/(Pixel*Frame) : 0.117\nStream size : 1.31 GiB (97%)\nTitle : 264:fps=&lt;a class=&quot;__cf_email__&quot; href=&quot;/cdn-cgi/l/email-protection&quot; data-cfemail=&quot;3200071c027275627371021c071c031f7677641f405744060b000b&quot;&gt;[email&amp;#160;protected]&lt;/a&gt;&lt;script data-cfhash='f9e31' type=&quot;text/javascript&quot;&gt;\n/* &lt;![CDATA[ */!function(){try{var t=&quot;currentScript&quot;in document?document.currentScript:function(){for(var t=document.getElementsByTagName(&quot;script&quot;),e=t.length;e--;)if(t[e].getAttribute(&quot;data-cfhash&quot;))return t[e]}();if(t&amp;&amp;t.previousSibling){var e,r,n,i,c=t.previousSibling,a=c.getAttribute(&quot;data-cfemail&quot;);if(a){for(e=&quot;&quot;,r=parseInt(a.substr(0,2),16),n=2;a.length-n;n+=2)i=parseInt(a.substr(n,2),16)^r,e+=String.fromCharCode(i);e=document.createTextNode(e),c.parentNode.replaceChild(e,c)}t.parentNode.removeChild(t);}}catch(u){}}()/* ]]&gt; */&lt;/script&gt;\nWriting library : x264 core 142 r2431+42 c69a006 tMod [8-bit@all X86_64]\nEncoding settings : cabac=1 / ref=11 / deblock=1:-2:-2 / analyse=0x3:0x133 / me=umh / subme=9 / psy=1 / fade_compensate=0.00 / psy_rd=1.10:0.00 / mixed_ref=1 / me_range=24 / chroma_me=1 / trellis=1 / 8x8dct=1 / cqm=0 / deadzone=21,11 / fast_pskip=0 / chroma_qp_offset=-2 / threads=18 / lookahead_threads=2 / sliced_threads=0 / nr=0 / decimate=0 / interlaced=0 / bluray_compat=0 / constrained_intra=0 / fgo=0 / bframes=6 / b_pyramid=2 / b_adapt=2 / b_bias=0 / direct=3 / weightb=1 / open_gop=0 / weightp=2 / keyint=250 / keyint_min=24 / scenecut=40 / intra_refresh=0 / rc_lookahead=120 / rc=abr / mbtree=1 / bitrate=2000 / ratetol=1.0 / qcomp=0.60 / qpmin=0:0:0 / qpmax=69:69:69 / qpstep=4 / ip_ratio=1.40 / aq=1:0.90 / aq-sensitivity=10.00 / aq-factor=1.00:1.00:1.00 / aq2=0 / aq3=0\nEncoded date : UTC 2015-09-18 13:50:45\nTagged date : UTC 2015-09-18 13:50:55\n\nAudio\nID : 2\nFormat : AAC\nFormat/Info : Advanced Audio Codec\nFormat profile : LC\nCodec ID : 40\nDuration : 1h 34mn\nSource duration : 1h 34mn\nBit rate mode : Variable\nBit rate : 61.6 Kbps\nMaximum bit rate : 68.0 Kbps\nChannel(s) : 2 channels\nChannel positions : Front: L R\nSampling rate : 44.1 KHz\nCompression mode : Lossy\nStream size : 41.8 MiB (3%)\nSource stream size : 41.8 MiB (3%)\nEncoded date : UTC 2015-08-21 02:50:45\nTagged date : UTC 2015-09-18 13:50:55\n\nScreens : -\n &lt;a href=&quot;\nhttp://imgsparrow.co/image/8X2&quot; rel=&quot;nofollow&quot; target=&quot;_NEW&quot;&gt;\nhttp://imgsparrow.co/image/8X2&lt;/a&gt; &lt;a href=&quot;\nhttp://imgsparrow.co/image/8X3&quot; rel=&quot;nofollow&quot; target=&quot;_NEW&quot;&gt;\nhttp://imgsparrow.co/image/8X3&lt;/a&gt; &lt;a href=&quot;\nhttp://imgsparrow.co/image/8Xi&quot; rel=&quot;nofollow&quot; target=&quot;_NEW&quot;&gt;\nhttp://imgsparrow.co/image/8Xi&lt;/a&gt; &lt;a href=&quot;\nhttp://imgsparrow.co/image/8XV&quot; rel=&quot;nofollow&quot; target=&quot;_NEW&quot;&gt;\nhttp://imgsparrow.co/image/8XV&lt;/a&gt; &lt;a href=&quot;\nhttp://imgsparrow.co/image/8Xl&quot; rel=&quot;nofollow&quot; target=&quot;_NEW&quot;&gt;\nhttp://imgsparrow.co/image/8Xl&lt;/a&gt;\n &lt;a href=&quot;\nhttp://imgsparrow.co/image/8nG&quot; rel=&quot;nofollow&quot; target=&quot;_NEW&quot;&gt;\nhttp://imgsparrow.co/image/8nG&lt;/a&gt;",
  "parsed": {
    "xt": "urn:btih:a79df5c09af3fa007285bad4e85025ef1e1a1ee8",
    "dn": "Vacation 2015 HD720P X264 AAC English CHS Mp4Ba ",
    "tr": [
      "udp://exodus.desync.com:6969",
      "udp://open.demonii.com:1337",
      "udp://tracker.coppersurfer.tk:6969",
      "udp://tracker.openbittorrent.com:80"
    ],
    "infoHash": "a79df5c09af3fa007285bad4e85025ef1e1a1ee8",
    "infoHashBuffer": {
      "type": "Buffer",
      "data": [
        167,
        157,
        245,
        192,
        154,
        243,
        250,
        0,
        114,
        133,
        186,
        212,
        232,
        80,
        37,
        239,
        30,
        26,
        30,
        232
      ]
    },
    "name": "Vacation 2015 HD720P X264 AAC English CHS Mp4Ba ",
    "announce": [
      "udp://exodus.desync.com:6969",
      "udp://open.demonii.com:1337",
      "udp://tracker.coppersurfer.tk:6969",
      "udp://tracker.openbittorrent.com:80"
    ],
    "urlList": []
  },
  "previous": 7,
  "peers": 8,
  "last_updated": "2016-12-27T09:28:12.106Z"
}